please SEED after download
_________________________________________________________________

complete WWE Friday Night SmackDown of 29 07 2011..
enjoy 

its in 6parts..description of first file is under..

General

Format                           : Flash Video
File size                        : 76.4 MiB
Duration                         : 14mn 27s
Overall bit rate                 : 738 Kbps
httphostheader                   :

Video

Format                           : AVC
Format/Info                      : Advanced Video Codec
Format profile                   : Main@L3.0
Format settings, CABAC           : Yes
Format settings, ReFrames        : 3 frames
Format settings, GOP             : M=1, N=37
Codec ID                         : 7
Duration                         : 14mn 27s
Bit rate                         : 601 Kbps
Width                            : 624 pixels
Height                           : 352 pixels
Display aspect ratio             : 16:9
Frame rate mode                  : Constant
Frame rate                       : 25.000 fps
Color space                      : YUV
Chroma subsampling               : 4:2:0
Bit depth                        : 8 bits
Scan type                        : Progressive
Bits/(Pixel*Frame)               : 0.110
Stream size                      : 62.2 MiB (81%)

Audio

Format                           : AAC
Format/Info                      : Advanced Audio Codec
Format profile                   : LC
Codec ID                         : 10
Duration                         : 14mn 27s
Bit rate                         : 129 Kbps
Channel(s)                       : 2 channels
Channel positions                : Front: L R
Sampling rate                    : 44.1 KHz
Compression mode                 : Lossy
Stream size                      : 13.3 MiB (17%)
__________________________________________________________________

please SEED after download
